<svg xmlns="http://www.w3.org/2000/svg" viewBox="0 0 24 24"><path fill="currentColor" d="M12 2.25a.75.75 0 0 1 .75.75v2.25a.75.75 0 0 1-1.5 0V3a.75.75 0 0 1 .75-.75M7.5 12a4.5 4.5 0 1 1 9 0 4.5 4.5 0 0 1-9 0m11.4-5.83a.75.75 0 0 0-1.07-1.06L16.24 6.7a.75.75 0 1 0 1.06 1.06zM21.74 12a.75.75 0 0 1-.75.75h-2.25a.75.75 0 0 1 0-1.5H21a.75.75 0 0 1 .75.75m-3.92 6.9a.75.75 0 0 0 1.06-1.07l-1.59-1.59a.75.75 0 1 0-1.06 1.06zM12 18a.75.75 0 0 1 .75.75V21a.75.75 0 0 1-1.5 0v-2.25A.75.75 0 0 1 12 18m-4.24-.7a.75.75 0 0 0-1.06-1.06l-1.6 1.6a.75.75 0 0 0 1.07 1.05zM6 12a.75.75 0 0 1-.75.75H3a.75.75 0 0 1 0-1.5h2.25A.75.75 0 0 1 6 12m.7-4.24A.75.75 0 0 0 7.76 6.7l-1.6-1.6a.75.75 0 0 0-1.05 1.07z"/></svg>