<svg xmlns="http://www.w3.org/2000/svg" viewBox="0 0 24 24"><path fill="currentColor" d="M13 7c3.17 0 4.97 2.1 5.23 4.64h.08a3.69 3.69 0 0 1 3.7 3.68A3.69 3.69 0 0 1 18.3 19H7.69A3.69 3.69 0 0 1 4 15.32a3.69 3.69 0 0 1 3.7-3.68h.07A4.95 4.95 0 0 1 13 7m0 1.5a3.86 3.86 0 0 0-3.88 3.89c0 .35-.31.63-.68.63h-.69c-1.26 0-2.28 1-2.28 2.24a2.26 2.26 0 0 0 2.28 2.24h10.5c1.26 0 2.29-1 2.29-2.24a2.26 2.26 0 0 0-2.29-2.24h-.69c-.36 0-.68-.28-.68-.63 0-2.29-1.8-3.9-3.88-3.9M10 4c1.62 0 3.05.81 3.9 2.06a8 8 0 0 0-.9-.05q-.6 0-1.14.08a3.22 3.22 0 0 0-5.03 2.07l-.07.41a1 1 0 0 1-.99.83h-.49a1.78 1.78 0 0 0-1.26 3.04c-.32.4-.57.85-.74 1.34A3.28 3.28 0 0 1 5.1 7.9h.25A4.72 4.72 0 0 1 10 4"/></svg>