<svg xmlns="http://www.w3.org/2000/svg" viewBox="0 0 20 20"><path fill="currentColor" d="M11 7c2.46 0 3.86 1.57 4.07 3.47h.06c1.58 0 2.87 1.24 2.87 2.77S16.71 16 15.13 16H6.87C5.3 16 4 14.76 4 13.24s1.29-2.77 2.87-2.77h.06C7.13 8.56 8.53 7 11 7m0 1a3.04 3.04 0 0 0-3.09 3.02c0 .28-.25.5-.54.5h-.55c-1 0-1.82.78-1.82 1.74S5.81 15 6.82 15h8.36c1 0 1.82-.78 1.82-1.74s-.81-1.74-1.82-1.74h-.55c-.29 0-.54-.22-.54-.5A3.02 3.02 0 0 0 11 8M3.8 9.7a.5.5 0 0 1-.22.6l-.09.04-.8.27a.5.5 0 0 1-.4-.9l.08-.04.8-.28a.5.5 0 0 1 .63.31m5.12-4.2c.33.16.63.37.87.62q-.6.13-1.13.38a2.28 2.28 0 0 0-3.01 3.3c-.33.1-.64.24-.93.42a3.28 3.28 0 0 1 4.2-4.72m-6 .17L3 5.7l.76.37a.5.5 0 0 1-.35.93l-.09-.03-.76-.37a.5.5 0 0 1 .36-.93M9.99 3.3a.5.5 0 0 1 .26.58l-.03.08-.37.77a.5.5 0 0 1-.93-.36l.03-.08.37-.76a.5.5 0 0 1 .67-.23M6.2 3.26l.04.09.27.8a.5.5 0 0 1-.9.4l-.04-.08-.28-.8a.5.5 0 0 1 .91-.4"/></svg>