<svg xmlns="http://www.w3.org/2000/svg" viewBox="0 0 24 24"><g fill="none" stroke="currentColor" stroke-width="2"><path stroke-linecap="round" d="M20.693 17.33a9 9 0 1 0-17.386 0"/><path d="M12.766 15.582c.487.71.144 1.792-.766 2.417-.91.626-2.043.558-2.53-.151-.52-.756-2.314-5.007-3.403-7.637-.205-.495.4-.911.79-.542 2.064 1.96 5.39 5.157 5.909 5.913Z"/><path stroke-linecap="round" d="M12 6v2m-6.364.636L7.05 10.05m11.314-1.414L16.95 10.05m3.743 7.28-1.931-.518m-15.455.518 1.931-.518"/></g></svg>