<svg xmlns="http://www.w3.org/2000/svg" viewBox="0 0 24 24"><path fill="currentColor" d="M9.75 18.15a.75.75 0 1 1 0 1.5.75.75 0 0 1 0-1.5m4.5 0a.75.75 0 1 1 0 1.5.75.75 0 0 1 0-1.5m-6.75-1a.75.75 0 1 1 0 1.5.75.75 0 0 1 0-1.5m4.5 0a.75.75 0 1 1 0 1.5.75.75 0 0 1 0-1.5m4.5 0a.75.75 0 1 1 0 1.5.75.75 0 0 1 0-1.5M12 4c3.17 0 4.97 2.1 5.23 4.63h.08A3.69 3.69 0 0 1 21 12.31 3.69 3.69 0 0 1 17.3 16H6.7A3.69 3.69 0 0 1 3 12.3a3.69 3.69 0 0 1 3.7-3.68h.07A4.95 4.95 0 0 1 12 4m0 1.5a3.86 3.86 0 0 0-3.88 3.89c0 .35-.32.63-.68.63h-.7c-1.25 0-2.27 1-2.27 2.24s1.02 2.24 2.28 2.24h10.5c1.26 0 2.28-1 2.28-2.24s-1.02-2.23-2.28-2.23h-.69c-.36 0-.68-.28-.68-.64 0-2.29-1.81-3.9-3.88-3.9"/></svg>